<svg xmlns="http://www.w3.org/2000/svg" width="16" height="16" fill="none" viewBox="0 0 16 16"><path fill="#000" fill-rule="evenodd" d="M8 16C3.5815 16 0 12.4185 0 8C0 3.5815 3.5815 0 8 0C12.4185 0 16 3.5815 16 8C16 12.4185 12.4185 16 8 16ZM11.997 8.1095L8.249 2L4.5 8.11L8.249 10.2865L11.997 8.1095ZM12 8.808L8.249 10.9835L4.5 8.8085L8.249 13.9975L12 8.808Z" clip-rule="evenodd"/><path fill="#B2B2B2" d="M8.24902 2V6.435L11.9975 8.11L8.24902 2ZM8.24902 10.984V13.9975L12 8.808L8.24902 10.984Z"/><path fill="#333" d="M8.24902 10.2864L11.9975 8.10991L8.24902 6.43591V10.2864Z"/><path fill="#B2B2B2" d="M4.5 8.10991L8.249 10.2864V6.43591L4.5 8.10991Z"/></svg>