<svg xmlns="http://www.w3.org/2000/svg" width="150" height="14" fill="none" viewBox="0 0 150 14"><path fill="#000" fill-opacity=".04" d="M148 5H2C0.89543 5 0 5.89543 0 7C0 8.10457 0.89543 9 2 9H148C149.105 9 150 8.10457 150 7C150 5.89543 149.105 5 148 5Z"/><path fill="#0010F7" d="M1 7C1 5.89543 1.89453 5 3.00607 5H73.9939C75.1019 5 76 5.88773 76 7C76 8.10457 75.1055 9 73.9939 9H3.00607C1.89815 9 1 8.11227 1 7Z"/><path fill="#fff" d="M81 14C84.866 14 88 10.866 88 7C88 3.13401 84.866 0 81 0C77.134 0 74 3.13401 74 7C74 10.866 77.134 14 81 14Z"/><path fill="#0010F7" d="M81 14C84.866 14 88 10.866 88 7C88 3.13401 84.866 0 81 0C77.134 0 74 3.13401 74 7C74 10.866 77.134 14 81 14Z"/><path fill="#fff" d="M81 12C83.7614 12 86 9.76142 86 7C86 4.23858 83.7614 2 81 2C78.2386 2 76 4.23858 76 7C76 9.76142 78.2386 12 81 12Z"/></svg>